<?xml version="1.0" encoding="utf-8"?>
<!-- Generator: Adobe Illustrator 24.1.2, SVG Export Plug-In . SVG Version: 6.00 Build 0)  -->
<svg version="1.1" id="圖層_1" focusable="false" xmlns="http://www.w3.org/2000/svg" xmlns:xlink="http://www.w3.org/1999/xlink"
	 x="0px" y="0px" viewBox="0 0 512 512" style="enable-background:new 0 0 512 512;" xml:space="preserve">
<style type="text/css">
	.st0{fill:#FFFFFF;}
</style>
<path class="st0" d="M328.6,224.2v81.6c0,7.5-6.1,13.6-13.6,13.6H197c-7.5,0-13.6-6.1-13.6-13.6v-81.6c0-7.5,6.1-13.6,13.6-13.6H222
	l3.5-9.3c2-5.3,7.1-8.8,12.7-8.8h35.6c5.7,0,10.7,3.5,12.7,8.8l3.5,9.3H315C322.5,210.6,328.6,216.7,328.6,224.2z M290,265.1
	c0-18.8-15.3-34-34-34s-34,15.3-34,34s15.3,34,34,34S290,283.8,290,265.1z M280.9,265.1c0,13.7-11.2,24.9-24.9,24.9
	c-13.7,0-24.9-11.2-24.9-24.9c0-13.7,11.2-24.9,24.9-24.9C269.7,240.1,280.9,251.3,280.9,265.1z"/>
</svg>
