<?xml version="1.0" encoding="utf-8"?>
<!-- Generator: Adobe Illustrator 24.1.3, SVG Export Plug-In . SVG Version: 6.00 Build 0)  -->
<svg version="1.1" id="圖層_1" xmlns="http://www.w3.org/2000/svg" xmlns:xlink="http://www.w3.org/1999/xlink" x="0px" y="0px"
	 viewBox="0 0 100 100" style="enable-background:new 0 0 100 100;" xml:space="preserve">
<style type="text/css">
	.st0{fill:#FFFFFF;stroke:#FFFFFF;stroke-miterlimit:10;}
</style>
<g>
	<g id="Mask_Group_8_1_" transform="translate(-1159 -755)">
		<path id="shopping-cart_1_" class="st0" d="M1250.8,812.9l8.1-36.1c0.5-2.2-0.9-4.5-3.1-5c-0.3-0.1-0.6-0.1-0.9-0.1h-67.5
			l-1.6-7.8c-0.4-1.9-2.1-3.3-4.1-3.3h-17.6c-2.3,0-4.2,1.9-4.2,4.2v2.8c0,2.3,1.9,4.2,4.2,4.2l0,0h12l12.1,59.6
			c-4.7,2.7-6.2,8.6-3.6,13.3c2.7,4.7,8.5,6.3,13.2,3.6c4.7-2.7,6.2-8.6,3.6-13.3c-0.4-0.8-1-1.5-1.6-2.1h36
			c-3.8,3.8-3.9,9.9-0.1,13.7s9.8,3.9,13.6,0.1c3.8-3.8,3.9-9.9,0.1-13.7c-0.8-0.8-1.7-1.5-2.7-1.9l1-4.2c0.5-2.2-0.9-4.5-3.1-5
			c-0.3-0.1-0.6-0.1-0.9-0.1h-46.1l-1.1-5.6h50.4C1248.7,816.1,1250.4,814.8,1250.8,812.9z"/>
	</g>
</g>
</svg>
