<?xml version="1.0" encoding="utf-8"?>
<!-- Generator: Adobe Illustrator 24.1.3, SVG Export Plug-In . SVG Version: 6.00 Build 0)  -->
<svg version="1.1" id="Capa_1" xmlns="http://www.w3.org/2000/svg" xmlns:xlink="http://www.w3.org/1999/xlink" x="0px" y="0px"
	 viewBox="0 0 500 500" style="enable-background:new 0 0 500 500;" xml:space="preserve">
<g>
	<path d="M11.6,356.5l28.4-28c5.6-5.5,14.6-5.4,20.1,0.2L170.7,441c5.5,5.6,5.4,14.6-0.2,20.1l-28.4,28c-5.6,5.5-14.6,5.4-20.1-0.2
		L11.5,376.7C6,371,6,362,11.6,356.5z"/>
	<path d="M334.3,38.8l28.4-28c5.6-5.5,14.6-5.4,20.1,0.2l110.6,112.3c5.5,5.6,5.4,14.6-0.2,20.1l-28.4,28
		c-5.6,5.5-14.6,5.4-20.1-0.2L334.2,59C328.7,53.4,328.7,44.4,334.3,38.8z"/>
	<path d="M258.8,430.3l-23.7,23.3c-3.7,3.7-9.7,3.6-13.4-0.1L48.5,277.6c-3.7-3.7-3.6-9.7,0.1-13.4l23.7-23.3
		c3.7-3.7,9.7-3.6,13.4,0.1l173.2,175.9C262.5,420.6,262.5,426.6,258.8,430.3z"/>
	<path d="M457.7,234.5L434,257.8c-3.7,3.7-9.7,3.6-13.4-0.1L247.4,81.8c-3.7-3.7-3.6-9.7,0.1-13.4l23.7-23.3
		c3.7-3.7,9.7-3.6,13.4,0.1L457.8,221C461.4,224.8,461.4,230.8,457.7,234.5z"/>
	<path d="M342.2,237.6l-101.5,99.9c-5.6,5.5-14.6,5.4-20.1-0.2l-55.9-56.8c-5.5-5.6-5.4-14.6,0.2-20.1l101.5-99.9
		c5.6-5.5,14.6-5.4,20.1,0.2l55.9,56.8C347.8,223.1,347.8,232.1,342.2,237.6z"/>
</g>
</svg>
