<?xml version="1.0" encoding="utf-8"?>
<!-- Generator: Adobe Illustrator 24.1.3, SVG Export Plug-In . SVG Version: 6.00 Build 0)  -->
<svg version="1.1" id="Layer_1" xmlns="http://www.w3.org/2000/svg" xmlns:xlink="http://www.w3.org/1999/xlink" x="0px" y="0px"
	 viewBox="0 0 750 750" style="enable-background:new 0 0 750 750;" xml:space="preserve">
<style type="text/css">
	.st0{fill:#5897EE;}
	.st1{fill:#046ABB;}
	.st2{fill:#707070;}
	.st3{fill:none;}
	.st4{fill:#FFFFFF;}
	.st5{font-family:'ArialRoundedMTBold';}
	.st6{font-size:48px;}
</style>
<g>
	<g>
		<g>
			<path class="st0" d="M438.3,150.1l-33.4,8.9c2.5-8.1,3.3-16.8,2-25.2c-4.4-27.2-24.7-47.1-51.2-51.3
				c-24.4-3.8-47.8,6.7-61.2,27.4l-31.9,49.5c-10.6-6.8-23.9-9.3-37-5.8c-13.1,3.5-23.4,12.3-29.2,23.6l-52.5-26.9
				c-21.9-11.3-47.5-8.6-66.7,6.9c-20.9,16.9-28.5,44.3-18.7,70c3,8,8,15.1,14.3,20.9l-33.3,8.9c-16.5,4.4-26.3,21.4-21.9,37.9
				l12,44.9c2.2,8.3,10.7,13.2,19,10.9l428.8-114.9c8.3-2.2,13.2-10.7,10.9-19l-12-44.9C471.8,155.4,454.8,145.6,438.3,150.1z
				 M192.6,210.5l1.3,5l-70.4,18.9c-18.6,5-37.9-8.4-38.4-29c-0.2-9.1,4-18,10.9-23.8c9.6-8,22.1-9.6,33.5-3.8l62.9,32.3
				C192.6,210.2,192.6,210.4,192.6,210.5z M376.1,137.7c3.1,15.8-7.9,31.1-23.5,35.3l-68.9,18.5l-1.3-5c0-0.2-0.1-0.3-0.2-0.5
				c8.7-13.5,27.5-42.7,37.7-58.5c5.8-9,15.7-15.1,26.4-14.8C361.6,113.1,373.2,122.9,376.1,137.7z"/>
		</g>
	</g>
	<g>
		<g>
			<path class="st1" d="M35.6,390v244.9c0,18.4,14.9,33.4,33.4,33.4h155.8V390H35.6z"/>
		</g>
	</g>
	<g>
		<g>
			<path class="st1" d="M291.6,390v278.3h155.8c18.4,0,33.4-14.9,33.4-33.4V390L291.6,390L291.6,390z"/>
		</g>
	</g>
	<g>
		<path class="st2" d="M527.6,258.1c0,3.7-4.1,6.5-8,3.9c-1.1-0.7-1.8-2-1.8-3.4v-5.5h-58.8v127.5h58.8v-5.5c0-1.3,0.7-2.6,1.8-3.4
			c3.9-2.5,8,0.2,8,3.9v4.9h206V253.2h-206V258.1z M527.6,282.6c0,3.7-4.1,6.5-8,3.9c-1.1-0.7-1.8-2-1.8-3.4v-6
			c0-1.3,0.7-2.6,1.8-3.4c3.9-2.5,8,0.2,8,3.9V282.6z M537.4,266.8c0-2.1,1.7-3.8,3.8-3.8h178.7c2.1,0,3.8,1.7,3.8,3.8V367
			c0,2.1-1.7,3.8-3.8,3.8H541.2c-2.1,0-3.8-1.7-3.8-3.8V266.8z"/>
		<rect x="547.2" y="272.8" class="st2" width="166.7" height="88.3"/>
		<rect x="568.5" y="290.3" class="st3" width="131.1" height="56.1"/>
		<text transform="matrix(1 0 0 1 568.4904 331.768)" class="st4 st5 st6">$ 500</text>
		<rect x="509.4" y="253.2" class="st2" width="25.8" height="127.3"/>
		<path class="st4" d="M526.6,381.4c-2.3,0-4.5,0-6.8,0.1c0-43.4,0-86.7,0-130.1c0,0,6.8,0,6.8,0S526.6,371.6,526.6,381.4z"/>
	</g>
</g>
</svg>
