<?xml version="1.0" encoding="utf-8"?>
<!-- Generator: Adobe Illustrator 24.1.3, SVG Export Plug-In . SVG Version: 6.00 Build 0)  -->
<svg version="1.1" id="圖層_1" xmlns="http://www.w3.org/2000/svg" xmlns:xlink="http://www.w3.org/1999/xlink" x="0px" y="0px"
	 viewBox="0 0 31 26" style="enable-background:new 0 0 31 26;" xml:space="preserve">
<style type="text/css">
	.st0{fill:none;}
	.st1{fill:#77CD28;}
</style>
<g id="Path_89">
	<path class="st0" d="M15.5,21.5c-5-3.4-7.7-6.5-8.8-9.1c-2.9-6.9,5.4-10.2,8.8-6.1c3.4-4.1,11.7-0.8,8.8,6.2
		C23.2,15,20.5,18.1,15.5,21.5z"/>
	<path class="st1" d="M15.5,20.3c4.1-2.8,6.8-5.7,7.9-8.2c0.7-1.8,0.7-3.4-0.1-4.6c-0.8-1.2-2.3-1.9-3.8-1.9c-1.3,0-2.4,0.5-3.2,1.4
		l-0.8,0.9l-0.8-0.9C14,6,12.9,5.5,11.6,5.5c-1.6,0-3,0.7-3.8,1.9C6.9,8.7,6.9,10.3,7.6,12C8.7,14.6,11.4,17.5,15.5,20.3 M15.5,21.5
		c-5-3.4-7.7-6.5-8.8-9.1c-2-4.9,1.4-7.9,4.9-7.9c1.5,0,2.9,0.6,3.9,1.8c1-1.2,2.5-1.8,3.9-1.8c3.4,0,6.9,3.1,4.9,7.9
		C23.2,15,20.5,18.1,15.5,21.5z"/>
</g>
</svg>
