<?xml version="1.0" encoding="utf-8"?>
<!-- Generator: Adobe Illustrator 24.1.3, SVG Export Plug-In . SVG Version: 6.00 Build 0)  -->
<svg version="1.1" id="圖層_1" xmlns="http://www.w3.org/2000/svg" xmlns:xlink="http://www.w3.org/1999/xlink" x="0px" y="0px"
	 viewBox="0 0 31 26" style="enable-background:new 0 0 31 26;" xml:space="preserve">
<style type="text/css">
	.st0{fill:#77CD28;}
</style>
<g id="Path_121">
	<path class="st0" d="M15.5,20.9c-2.2-1.5-4.1-3.1-5.5-4.6c-1.3-1.4-2.3-2.8-2.8-4.1c-1-2.4-0.5-4.1,0.2-5.1C8.2,5.8,9.9,5,11.6,5
		c1.4,0,2.7,0.6,3.5,1.6l0.4,0.5l0.4-0.5C16.7,5.6,18,5,19.4,5c1.7,0,3.3,0.8,4.2,2.2c0.6,1,1.2,2.6,0.2,5.1
		c-0.6,1.3-1.5,2.7-2.8,4.1C19.6,17.8,17.7,19.4,15.5,20.9z"/>
	<path class="st0" d="M15.5,20.3c4.1-2.8,6.8-5.7,7.9-8.2c0.7-1.8,0.7-3.4-0.1-4.6c-0.8-1.2-2.3-1.9-3.8-1.9c-1.3,0-2.4,0.5-3.2,1.4
		l-0.8,0.9l-0.8-0.9C14,6,12.9,5.5,11.6,5.5c-1.6,0-3,0.7-3.8,1.9C6.9,8.7,6.9,10.3,7.6,12C8.7,14.6,11.4,17.5,15.5,20.3 M15.5,21.5
		c-5-3.4-7.7-6.5-8.8-9.1c-2-4.9,1.4-7.9,4.9-7.9c1.5,0,2.9,0.6,3.9,1.8c1-1.2,2.5-1.8,3.9-1.8c3.4,0,6.9,3.1,4.9,7.9
		C23.2,15,20.5,18.1,15.5,21.5z"/>
</g>
</svg>
