<?xml version="1.0" encoding="utf-8"?>
<!-- Generator: Adobe Illustrator 24.1.3, SVG Export Plug-In . SVG Version: 6.00 Build 0)  -->
<svg version="1.1" id="圖層_1" xmlns="http://www.w3.org/2000/svg" xmlns:xlink="http://www.w3.org/1999/xlink" x="0px" y="0px"
	 viewBox="0 0 100 100" style="enable-background:new 0 0 100 100;" xml:space="preserve">
<style type="text/css">
	.st0{clip-path:url(#SVGID_2_);}
	.st1{fill:#FFFFFF;}
</style>
<g>
	<defs>
		<rect id="SVGID_1_" width="100" height="100"/>
	</defs>
	<use xlink:href="#SVGID_1_"  style="overflow:visible;fill:#FFFFFF;"/>
	<clipPath id="SVGID_2_">
		<use xlink:href="#SVGID_1_"  style="overflow:visible;"/>
	</clipPath>
	<g id="Mask_Group_4" transform="translate(-706 -755)" class="st0">
		<g id="漢堡" transform="translate(706 759.989)">
			<path id="Path_59" class="st1" d="M8.4,11.1h83.1c4.4,0,8.2,2.2,8.2,5.1v3.3c0,2.7-3.8,5.1-8.4,5.1H8.4C3.8,24.4,0,22.2,0,19.3
				v-3.1C0,13.3,3.8,11.1,8.4,11.1z"/>
			<path id="Path_60" class="st1" d="M8.4,38.1h83.1c4.7,0,8.4,2.2,8.4,5.1v3.3c0,2.7-3.8,5.1-8.4,5.1H8.4c-4.7,0-8.4-2.2-8.4-5.1
				v-3.3C0,40.6,3.8,38.1,8.4,38.1z"/>
			<path id="Path_61" class="st1" d="M8.4,65.4h83.1c4.7,0,8.4,2.2,8.4,5.1v3.3c0,2.7-3.8,5.1-8.4,5.1H8.4c-4.7,0-8.4-2.2-8.4-5.1
				v-3.3C0,67.6,3.8,65.4,8.4,65.4z"/>
		</g>
	</g>
</g>
</svg>
