<?xml version="1.0" encoding="utf-8"?>
<!-- Generator: Adobe Illustrator 24.1.3, SVG Export Plug-In . SVG Version: 6.00 Build 0)  -->
<svg version="1.1" id="圖層_1" xmlns="http://www.w3.org/2000/svg" xmlns:xlink="http://www.w3.org/1999/xlink" x="0px" y="0px"
	 viewBox="0 0 110 110" style="enable-background:new 0 0 110 110;" xml:space="preserve">
<g id="漢堡" transform="translate(0 -11.086)">
	<path id="Path_59" d="M13.4,32.2h83.1c4.4,0,8.2,2.2,8.2,5.1v3.3c0,2.7-3.8,5.1-8.4,5.1H13.4C8.8,45.5,5,43.2,5,40.4v-3.1
		C5,34.4,8.8,32.2,13.4,32.2z"/>
	<path id="Path_60" d="M13.4,59.2h83.1c4.7,0,8.4,2.2,8.4,5.1v3.3c0,2.7-3.8,5.1-8.4,5.1H13.4c-4.7,0-8.4-2.2-8.4-5.1v-3.3
		C5,61.7,8.8,59.2,13.4,59.2z"/>
	<path id="Path_61" d="M13.4,86.5h83.1c4.7,0,8.4,2.2,8.4,5.1v3.3c0,2.7-3.8,5.1-8.4,5.1H13.4C8.8,100,5,97.8,5,94.9v-3.3
		C5,88.7,8.8,86.5,13.4,86.5z"/>
</g>
</svg>
