<?xml version="1.0" encoding="utf-8"?>
<!-- Generator: Adobe Illustrator 24.1.3, SVG Export Plug-In . SVG Version: 6.00 Build 0)  -->
<svg version="1.1" id="圖層_1" xmlns="http://www.w3.org/2000/svg" xmlns:xlink="http://www.w3.org/1999/xlink" x="0px" y="0px"
	 viewBox="0 0 31 26" style="enable-background:new 0 0 31 26;" xml:space="preserve">
<style type="text/css">
	.st0{fill:#FFFFFF;}
	.st1{fill:#419B00;}
</style>
<rect id="Rectangle_124" x="8" y="5.5" class="st0" width="15" height="15"/>
<path id="Icon_ionic-ios-arrow-dropright-circle" class="st1" d="M27.6,13c0-6.7-5.4-12.1-12.1-12.1S3.4,6.3,3.4,13
	s5.4,12.1,12.1,12.1c0,0,0,0,0,0C22.2,25.1,27.6,19.7,27.6,13C27.6,13,27.6,13,27.6,13z M13.4,13l4.8,4.7c0.4,0.4,0.4,1.1,0,1.6
	c-0.4,0.4-1.1,0.4-1.6,0L11,13.7c-0.4-0.4-0.4-1.1,0-1.5l5.5-5.5c0.4-0.4,1.1-0.5,1.6,0c0.4,0.4,0.5,1.1,0,1.6c0,0,0,0,0,0L13.4,13z
	"/>
</svg>
