<?xml version="1.0" encoding="utf-8"?>
<!-- Generator: Adobe Illustrator 24.1.3, SVG Export Plug-In . SVG Version: 6.00 Build 0)  -->
<svg version="1.1" id="圖層_1" xmlns="http://www.w3.org/2000/svg" xmlns:xlink="http://www.w3.org/1999/xlink" x="0px" y="0px"
	 viewBox="0 0 60 60" style="enable-background:new 0 0 60 60;" xml:space="preserve">
<style type="text/css">
	.st0{opacity:0.7;fill:#279AF1;}
</style>
<path id="Icon_ionic-ios-arrow-dropright-circle-2" class="st0" d="M55,30c0,13.8-11.2,25-25,25S5,43.8,5,30S16.2,5,30,5
	S55,16.2,55,30z M25.6,30l9.8-9.7c0.9-0.9,0.9-2.4,0-3.3s-2.4-0.9-3.3,0L20.7,28.5c-0.9,0.9-0.9,2.3-0.1,3.2L31.9,43
	c0.9,0.9,2.4,0.9,3.3,0.1c0.9-0.9,0.9-2.4,0.1-3.3c0,0,0,0,0,0L25.6,30z"/>
</svg>
