<?xml version="1.0" encoding="utf-8"?>
<!-- Generator: Adobe Illustrator 24.1.3, SVG Export Plug-In . SVG Version: 6.00 Build 0)  -->
<svg version="1.1" id="圖層_1" xmlns="http://www.w3.org/2000/svg" xmlns:xlink="http://www.w3.org/1999/xlink" x="0px" y="0px"
	 viewBox="0 0 297 90" style="enable-background:new 0 0 297 90;" xml:space="preserve">
<style type="text/css">
	.st0{fill:#FFFFFF;}
</style>
<g>
	<path class="st0" d="M93.8,57.5c1.9-0.4,3.7-0.8,5.6-1.3c-0.3,1.4-0.8,2.5-0.9,3.7c-0.2,1.9-1.3,2.6-2.9,3
		c-5.6,1.4-11.2,3-16.8,4.4c-0.2,0-0.4,0-0.8,0.1c0.5-1.9,1-3.9,1.4-5.7c1.1-4.1,2.1-8,3.3-12c0.2-0.7,0.1-1.2-0.6-1.5
		c-1.4-1.1-2.9-2.2-4.5-3.5c4,0,7.5,0,11.3,0c-1.3,4.7-2.5,9.6-3.9,14.4c1.7,0.2,1.9,0.1,2.3-1.4c1.4-5,2.7-10,4.1-15.1
		c0.1-0.4,0.2-0.8,0.3-1.3c-2.1,0-4.1,0-6.5,0c0.2-1,0.4-1.7,0.6-2.4c0.8-2.9,1.5-5.9,2.4-8.8c0.2-0.8,0.1-1.3-0.6-1.6
		c-1.6-1.3-3.3-2.5-5.2-4c8.3,0,16.3,0,24.4,0c-1.1,4.1-2.2,8.3-3.3,12.3c3.5-3.1,6-6.8,8.4-10.7c-1.5-1-2.9-1.9-4.6-3
		c4.7,0,9.1,0,13.6,0c-1.3,2.1-2.4,4.1-3.8,6.3c5.1,0,9.9,0,15,0c-0.1,0.6-0.1,0.9-0.2,1.3c-2,6.9-4.1,13.8-6.2,20.6
		c-0.4,1.4-0.9,2.6-1.5,3.9c-0.6,1.2-1.4,2.2-2.2,3.5c1.2,0,2.3,0,3.8,0c-0.1,0.6-0.1,1.2-0.3,1.4c-1.1,2-2,4.1-3.4,6
		c-1.5,2.1-4,2.6-6.5,2.7c-3.4,0.1-6.8,0.1-10.2,0c-1.3,0-2.4-0.3-3.6-0.7c-1.4-0.5-2-1.5-2.1-3c-0.2-2.8,0.8-5.4,1.5-8.1
		c1.3-4.8,2.6-9.7,3.9-14.6c0.1-0.3,0.1-0.6,0.2-1.1c-2.4,0-4.7,0-7,0c-0.2,0-0.6,0.3-0.7,0.5c-0.4,1.2-0.7,2.4-1.1,3.8
		c1.7,0,3.3,0,4.9,0c-0.5,1.9-1,3.7-1.4,5.4c-0.1,0.4-0.7,0.7-1.1,0.8c-1.1,0.1-2.2,0-3.4,0.1c-0.3,0-0.8,0.4-0.9,0.7
		C94.5,54.1,94.2,55.7,93.8,57.5z M114,54.8c-1.6,0-3.1,0-4.5,0c-0.7,0-1.1,0.3-1.2,1c-0.4,1.6-0.9,3.4-1.3,5c-0.4,1.5,0,2,1.5,2
		c2.6,0,5.1,0,7.7,0c1.6,0,2.8-1.1,2.9-2.8c-1.7,0.1-3.4,0.2-5.2,0.3C114,58.3,114,56.6,114,54.8z M121.4,38.5
		c-1.4,5.3-2.8,10.3-4.1,15.6c1.6-0.7,2.1-1.8,2.5-3c1.4-4.2,2.7-8.5,4-12.7c0.2-0.7,0.4-1.4,0.6-2.4c-0.6,0-1,0-1.4,0
		c-2.8,0-5.5,0-8.3,0c-1.9,0-2.7,0.5-3.6,2.5C114.3,38.5,117.7,38.5,121.4,38.5z M99,30.5c-1.5,0-2.9,0-4.3,0
		c-0.2,0-0.5,0.2-0.6,0.4c-0.5,1.4-0.8,3-1.3,4.6c1.6,0,3,0,4.3,0c0.2,0,0.5-0.3,0.6-0.5C98.2,33.7,98.6,32.1,99,30.5z M110.2,49.1
		c1.1-0.2,2.2-0.2,2.4-0.6c0.6-1.4,0.9-2.8,1.3-4.3c-0.7,0-1.1-0.1-1.5,0c-0.3,0.1-0.9,0.2-0.9,0.4C110.9,46,110.6,47.4,110.2,49.1z
		"/>
	<path class="st0" d="M32.2,46.8c1.5-0.2,2.7-0.3,3.9-0.6c1.9-0.6,4-1.1,5.7-2c4.3-2.4,6.3-7.1,5.4-12.1c-0.8-4.4-4.5-8.4-9.2-9.1
		c-2.4-0.4-4.9-0.1-7.5-0.1c1.2,1.7,2.2,3.5,3.3,5.1c0.1,0.2,0.7,0.3,1,0.2c1-0.3,1.9-0.7,3.1-1c0,3.5,0,6.7,0,10.1
		c-4.9-5.1-9.8-5.2-15.1-0.4C15.5,29.2,8.2,21.3,0.7,13.1C1.3,13,1.6,13,2,13c12.9,0,25.9,0,38.8,0c2.9,0,5.6,0.8,8,2.2
		C55.3,19,59.5,24.5,60.6,32c1.2,8.6-1.9,15.6-8.9,20.8c-0.3,0.2-0.5,0.4-0.9,0.7c4.4,7.7,8.9,15.4,13.3,23.2
		c-0.1,0.1-0.3,0.2-0.4,0.3C53.3,66.9,42.8,57,32.2,46.8z"/>
	<path class="st0" d="M160.4,46.1c5,0,10.1,0,15.4,0c-0.4,1.6-0.8,3.1-1.2,4.5c-1.5,5.7-3.1,11.3-4.5,17c-0.3,1.1-0.7,1.4-1.7,1.4
		c-1.5-0.1-3.2,0-4.7,0c-1.1,0-1.1,0-1.2-1.2c-2.2,0-4.4,0-6.7,0c-2.2,0-4.4,0-6.8,0c-0.7,0-1.2,0.1-1.4,0.9c0,0.2-0.4,0.5-0.7,0.5
		c-2,0-4.1,0-6.4,0c1.4-5.4,2.8-10.5,4.2-16c-0.7,0.2-1.1,0.3-1.5,0.5c-3.2,1-6.5,2-9.6,3c-1.4,0.4-1.5,0.1-1.2-1.3
		c0.4-1.4,0.8-2.7,1.1-4c0.2-0.7,0.6-1,1.2-1.2c6-1.8,11.8-4.1,17.4-6.9c0.3-0.1,0.5-0.3,0.7-0.7c-1.4,0-2.8,0-4.2,0
		c-2.1,0-4.3,0-6.5,0c-0.4,0-0.9,0-1.1-0.2c-2-1.7-4-3.6-6-5.4c0-0.1,0.1-0.2,0.1-0.3c0.4,0,0.8-0.1,1.2-0.1c5.8,0,11.5,0,17.3,0
		c0.9,0,1.4-0.3,1.4-1.2c0.1-0.9,0.4-1.6,0.7-2.6c-2.1,0-4.1,0.1-6.1,0c-0.6,0-1.3-0.3-1.7-0.7c-1.6-1.4-3.2-2.8-4.7-4.2
		c-0.3-0.3-0.7-0.4-1-0.6c0.1-0.2,0.2-0.3,0.3-0.5c0.4,0,0.8,0,1.3,0c4.1,0,8.3,0,12.4,0c0.9,0,1.3-0.2,1.4-1.1
		c0.3-1.3,0.7-2.5,1.1-3.8c0.1-0.3,0.5-0.8,0.8-0.8c2.1-0.1,4.2,0,6.6,0c-0.5,1.9-1,3.7-1.4,5.6c6.9,0,13.5,0,20.2,0
		c0.1,0.1,0.1,0.3,0.2,0.4c-3.5,3-6.9,6-10.5,9.2c3.7,0,7,0,10.7,0c-0.6,2-1,3.9-1.5,5.7c-0.1,0.2-0.8,0.4-1.2,0.4
		c-5.3,0-10.6,0-15.8,0c-0.8,0-1.5,0.3-2.2,0.7c-1.4,0.7-2.7,1.5-4.1,2.3C160.3,45.9,160.3,46,160.4,46.1z M151.5,55.1
		c4.8,0,9.5,0,14.1,0c0.2,0,0.6-0.2,0.7-0.4c0.3-0.8,0.5-1.6,0.7-2.5c-4.8,0-9.5,0-14.2,0c-0.2,0-0.5,0.2-0.6,0.4
		C151.9,53.2,151.7,54.1,151.5,55.1z M150.5,58.8c-0.3,1-0.5,1.9-0.9,3c4.8,0,9.5,0,14,0c0.3,0,0.7-0.3,0.8-0.5
		c0.3-0.8,0.5-1.6,0.7-2.5C160.1,58.8,155.3,58.8,150.5,58.8z M169,33.5c0-0.1-0.1-0.3-0.1-0.4c-1.9,0-3.8,0-5.7,0
		c-0.2,0-0.4,0.3-0.5,0.4c-0.3,1.1-0.6,2-0.9,3.2C165.2,37.1,166.8,34.5,169,33.5z"/>
	<path class="st0" d="M274.1,57.6c1.1-4.1,2.1-8,3.2-12c-0.2,0-0.3-0.1-0.4-0.1c-1.8,0.3-2.8,1.3-3.3,3.3c-1,4.5-2.3,9-3.5,13.5
		c-0.4,1.5,0.1,2,1.6,2c3.2,0,6.4,0,9.5,0c1.4,0,2.5-0.7,3.2-1.9c0.5-1,0.9-2,1.4-3c0.2-0.4,0.6-0.8,1-0.8c1.9-0.1,3.8,0,5.9,0
		c-1.5,3.8-2.6,7.5-5.8,10.2c-1.4,1.2-3.1,1.7-4.9,1.8c-4.7,0.1-9.5,0.1-14.1,0c-3.7-0.1-5.5-2-5-5.6c0.2-1.4,0.5-2.6,0.8-4
		c0.9-3.5,1.8-6.9,2.8-10.3c0.1-0.3,0.1-0.7,0.2-1.2c-1.1,0.4-1.9,0.7-3.1,1.1c0.3-1,0.4-1.7,0.6-2.5c0.3-1.3,0.7-2.4,1-3.7
		c0.2-0.9,0.6-1.4,1.4-1.5c1.6-0.3,2.4-1.4,2.8-3c0.6-3,1.5-5.9,2.3-8.8c0.3-1.1,0.8-1.4,1.8-1.4c1.7,0.1,3.5,0,5.3,0
		c-0.9,3.2-1.6,6.2-2.4,9.4c1.1-0.4,1.8-0.7,2.6-1.1c0.3-0.1,0.5-0.6,0.6-0.9c0.8-2.9,1.5-5.9,2.4-8.8c0.2-0.8,0-1.2-0.6-1.5
		c-1-0.7-1.8-1.4-3-2.1c3.9,0,7.4,0,11.3,0c-0.9,3.5-1.8,6.8-2.8,10.4c1.6-0.7,3.1-1.1,4.3-1.7c1.1-0.6,2-0.6,3.1,0
		c2.3,1.1,2.4,1.1,1.7,3.5c-1.4,4.9-2.7,9.8-4.1,14.8c-1.4,4.5-3.5,6.1-8.1,6.1c-2.8,0-5.6,0-8.5,0
		C274.9,57.7,274.7,57.6,274.1,57.6z M282.4,51.7c2.7,0.3,2.7,0.3,3.4-2.1c0.7-2.4,1.4-4.8,1.9-7.2c0.1-0.4,0.1-0.7,0.2-1.1
		c-2.1,0.3-3.4,1.1-3.8,3.3C283.8,47,283,49.3,282.4,51.7z"/>
	<path class="st0" d="M211.6,70c-1.6-1.4-3.2-2.5-4.7-3.8c1.3-2,2.7-4.1,3.9-6.2c2.9-5.3,4.7-11.1,6.3-16.9
		c1.4-4.7,2.5-9.5,3.9-14.3c0.3-0.9,0.1-1.4-0.7-1.8c-1-0.6-1.8-1.3-3-2.1c7.8,0,15.2,0,22.9,0c-0.5,1.7-0.9,3.5-1.4,5.2
		c-2.7,10.3-5.5,20.6-8.2,31c-0.1,0.4,0.1,0.8,0.2,1.2c0.4-0.3,1-0.5,1.1-0.8c0.7-2,1.4-4.1,1.9-6.2c0.2-0.9,0.6-1.2,1.5-1.2
		c1.4,0.1,2.8,0,4.2,0c0,0.2,0.1,0.3,0.1,0.4c-1.1,3.3-2.1,6.6-3.4,9.8c-0.4,1-1.1,1.8-1.8,2.6c-1.1,1.2-2.4,1.7-4,1.7
		c-1.4,0-2.6,0-4,0c-2.8-0.1-4.2-1.7-3.8-4.5c0.5-2.3,1.1-4.5,1.6-6.9c2.2-8.3,4.4-16.7,6.8-25c0.1-0.2,0.1-0.5,0.1-0.8
		c-1.3,0-2.4-0.1-3.5,0c-0.3,0-0.8,0.6-0.9,1c-1.5,5.2-2.8,10.5-4.4,15.7c-2.1,6.9-4.8,13.6-9.1,19.6c-0.4,0.6-0.8,1.1-1.3,1.5
		C211.8,69.7,211.8,69.9,211.6,70z"/>
	<path class="st0" d="M191.6,25.1c8,0,16.1,0,24.3,0c-0.4,1.4-0.7,2.5-1,3.8c-3.1,11.5-6.3,22.9-9.2,34.3c-1.4,5.6-5.3,7.4-10.9,6.8
		c0-2.1,0-4.2,0-6.7c0.9,0,1.8,0,2.8,0c1.1,0,1.6-0.3,1.8-1.4c0.4-1.7,1-3.5,1.4-5.2c0.1-0.3-0.1-0.8-0.3-1
		c-0.8-0.6-1.6-1.1-2.6-1.6c-1.2,2.8-2.2,5.6-3.5,8.2c-1.3,2.7-2.7,5.2-4.1,7.9c-1.7-1.4-3.2-2.5-4.6-3.7c1-1.7,2-3.5,2.9-5.2
		c3-6,4.6-12.4,6.4-18.8c1-3.7,1.9-7.3,3-11c0.3-1,0.1-1.5-0.8-2.2C195.3,28,193.3,26.5,191.6,25.1
		C191.5,25.3,191.6,25.2,191.6,25.1z M207.6,31.6c-3.2-0.4-3.2-0.4-4,2.4c-0.1,0.4-0.2,0.8-0.3,1.3c0,0.2-0.1,0.6,0,0.7
		c0.8,0.7,1.6,1.3,2.6,1.9C206.5,35.7,207,33.7,207.6,31.6z M201.4,42.6c-0.5,1.5-0.9,2.8-1.2,4.1c-0.1,0.2,0.1,0.7,0.2,0.8
		c0.7,0.6,1.5,1.2,2.4,1.7c0.4-1.5,0.8-2.8,1.2-4.1c0.1-0.2-0.1-0.6-0.3-0.8C203.1,43.8,202.3,43.3,201.4,42.6z"/>
	<path class="st0" d="M242.7,65.8c0.7-2.6,1.3-5,1.9-7.3c0.1-0.4,0.6-0.8,1-0.9c1.4-0.5,2.9-0.9,4.2-1.4c0.4-0.1,0.9-0.5,1-0.8
		c1.2-4.1,2.2-8.1,3.3-12.2c-0.1-0.1-0.2-0.2-0.2-0.2c-1.7,0.3-2.8-0.8-3.9-1.9c-1.3-1.4-2.6-2.6-4-4c-0.2-0.2-0.4-0.5-0.7-0.9
		c0.6,0,1-0.1,1.3-0.1c2.6,0,5.2-0.1,7.7,0c1.1,0,1.6-0.3,1.8-1.4c0.4-1.7,0.9-3.5,1.4-5.2c0.2-0.7,0-1-0.5-1.4
		c-1.2-0.8-2.3-1.6-3.5-2.5c-0.3-0.2-0.6-0.5-1.1-0.9c4.4,0,8.6,0,12.9,0c-1,3.8-1.9,7.3-3,11.1c1.4,0,2.7,0,4.1,0
		c-0.6,2.2-1.1,4.2-1.6,6.3c-0.1,0.2-0.4,0.4-0.7,0.5c-0.2,0.1-0.4,0-0.6,0c-1.1,0.1-2.3-0.2-3,0.3s-0.7,1.8-1,2.8
		c-0.7,2.5-1.4,4.9-2,7.7c1.9-0.6,3.7-1.2,5.7-1.7c-0.3,1.3-0.8,2.3-0.9,3.5c-0.3,2.4-1.5,3.7-3.9,4.4c-5.1,1.7-10.1,3.8-15.1,5.7
		C243.6,65.6,243.3,65.7,242.7,65.8z"/>
	<path class="st0" d="M26,71.3c-6.9-7.8-13.6-15.7-20.6-23.6c0.5-0.1,0.7-0.2,1-0.2c6.4,0,12.6,0,19,0c0.8,0,1.1,0.2,1.1,1.1
		c0,7.3,0,14.7,0,22.1c0,0.2,0,0.4-0.1,0.6C26.2,71.2,26.1,71.2,26,71.3z"/>
</g>
</svg>
