<?xml version="1.0" encoding="utf-8"?>
<!-- Generator: Adobe Illustrator 24.1.3, SVG Export Plug-In . SVG Version: 6.00 Build 0)  -->
<svg version="1.1" id="圖層_1" xmlns="http://www.w3.org/2000/svg" xmlns:xlink="http://www.w3.org/1999/xlink" x="0px" y="0px"
	 viewBox="0 0 70 70" style="enable-background:new 0 0 70 70;" xml:space="preserve">
<g>
	<path d="M34.8,36.8c1.5-0.2,2.7-0.3,3.9-0.6c1.9-0.6,4-1.1,5.7-2c4.3-2.4,6.3-7.1,5.4-12.1c-0.8-4.4-4.5-8.4-9.2-9.1
		c-2.4-0.4-4.9-0.1-7.5-0.1c1.2,1.7,2.2,3.5,3.3,5.1c0.1,0.2,0.7,0.3,1,0.2c1-0.3,1.9-0.7,3.1-1c0,3.5,0,6.7,0,10.1
		c-4.9-5.1-9.8-5.2-15.1-0.4C18.1,19.2,10.8,11.3,3.3,3.1C3.9,3,4.2,3,4.6,3c12.9,0,25.9,0,38.8,0c2.9,0,5.6,0.8,8,2.2
		C57.9,9,62.1,14.5,63.2,22c1.2,8.6-1.9,15.6-8.9,20.8c-0.3,0.2-0.5,0.4-0.9,0.7c4.4,7.7,8.9,15.4,13.3,23.2
		c-0.1,0.1-0.3,0.2-0.4,0.3C55.9,56.9,45.4,47,34.8,36.8z"/>
	<path d="M28.6,61.3C21.7,53.5,15,45.6,8,37.7c0.5-0.1,0.7-0.2,1-0.2c6.4,0,12.6,0,19,0c0.8,0,1.1,0.2,1.1,1.1c0,7.3,0,14.7,0,22.1
		c0,0.2,0,0.4-0.1,0.6C28.8,61.2,28.7,61.2,28.6,61.3z"/>
</g>
</svg>
