<?xml version="1.0" encoding="utf-8"?>
<!-- Generator: Adobe Illustrator 24.1.3, SVG Export Plug-In . SVG Version: 6.00 Build 0)  -->
<svg version="1.1" id="Capa_1" xmlns="http://www.w3.org/2000/svg" xmlns:xlink="http://www.w3.org/1999/xlink" x="0px" y="0px"
	 viewBox="0 0 120 120" style="enable-background:new 0 0 120 120;" xml:space="preserve">
<style type="text/css">
	.st0{fill:#FFFFFF;}
</style>
<g>
	<path class="st0" d="M117.6,40.4c0-7.5,0-12.8,0-13.3c0-5.6-4.5-10.1-10.1-10.1h-1.4v12.4c0,1.9-1.5,3.4-3.4,3.4
		c-1.9,0-3.4-1.5-3.4-3.4c0-3.8,0-14.2,0-18C99.4,9.5,97.9,8,96,8c-1.9,0-3.4,1.5-3.4,3.4V17H70.1v12.4c0,1.9-1.5,3.4-3.4,3.4
		c-1.9,0-3.4-1.5-3.4-3.4c0-3.8,0-14.2,0-18C63.4,9.5,61.9,8,60,8s-3.4,1.5-3.4,3.4V17H34.1v12.4c0,1.9-1.5,3.4-3.4,3.4
		s-3.4-1.5-3.4-3.4c0-3.8,0-14.2,0-18C27.4,9.5,25.8,8,24,8s-3.4,1.5-3.4,3.4V17h-8.1C6.9,17,2.4,21.5,2.4,27.1v13.3H117.6z"/>
	<path class="st0" d="M2.4,47.2v54.7c0,5.6,4.5,10.1,10.1,10.1h95c5.6,0,10.1-4.5,10.1-10.1c0-1.4,0-33,0-54.7
		C115.5,47.2,3.5,47.2,2.4,47.2z M34.8,94h-7.2c-1.9,0-3.4-1.5-3.4-3.4c0-1.9,1.5-3.4,3.4-3.4h7.2c1.9,0,3.4,1.5,3.4,3.4
		C38.2,92.5,36.7,94,34.8,94z M34.8,79.6h-7.2c-1.9,0-3.4-1.5-3.4-3.4c0-1.9,1.5-3.4,3.4-3.4h7.2c1.9,0,3.4,1.5,3.4,3.4
		C38.2,78.1,36.7,79.6,34.8,79.6z M34.8,65.2h-7.2c-1.9,0-3.4-1.5-3.4-3.4s1.5-3.4,3.4-3.4h7.2c1.9,0,3.4,1.5,3.4,3.4
		S36.7,65.2,34.8,65.2z M63.6,94h-7.2c-1.9,0-3.4-1.5-3.4-3.4c0-1.9,1.5-3.4,3.4-3.4h7.2c1.9,0,3.4,1.5,3.4,3.4
		C67,92.5,65.5,94,63.6,94z M63.6,79.6h-7.2c-1.9,0-3.4-1.5-3.4-3.4c0-1.9,1.5-3.4,3.4-3.4h7.2c1.9,0,3.4,1.5,3.4,3.4
		C67,78.1,65.5,79.6,63.6,79.6z M63.6,65.2h-7.2c-1.9,0-3.4-1.5-3.4-3.4s1.5-3.4,3.4-3.4h7.2c1.9,0,3.4,1.5,3.4,3.4
		S65.5,65.2,63.6,65.2z M92.4,94h-7.2c-1.9,0-3.4-1.5-3.4-3.4c0-1.9,1.5-3.4,3.4-3.4h7.2c1.9,0,3.4,1.5,3.4,3.4
		C95.8,92.5,94.3,94,92.4,94z M92.4,79.6h-7.2c-1.9,0-3.4-1.5-3.4-3.4c0-1.9,1.5-3.4,3.4-3.4h7.2c1.9,0,3.4,1.5,3.4,3.4
		C95.8,78.1,94.3,79.6,92.4,79.6z M92.4,65.2h-7.2c-1.9,0-3.4-1.5-3.4-3.4s1.5-3.4,3.4-3.4h7.2c1.9,0,3.4,1.5,3.4,3.4
		S94.3,65.2,92.4,65.2z"/>
</g>
</svg>
