<?xml version="1.0" encoding="utf-8"?>
<!-- Generator: Adobe Illustrator 24.1.3, SVG Export Plug-In . SVG Version: 6.00 Build 0)  -->
<svg version="1.1" id="圖層_1" xmlns="http://www.w3.org/2000/svg" xmlns:xlink="http://www.w3.org/1999/xlink" x="0px" y="0px"
	 viewBox="0 0 31 26" style="enable-background:new 0 0 31 26;" xml:space="preserve">
<style type="text/css">
	.st0{fill:#FFFFFF;}
	.st1{fill:#419B00;}
</style>
<rect id="Rectangle_124" x="8" y="5.5" class="st0" width="15" height="15"/>
<path id="Icon_ionic-ios-arrow-dropright-circle" class="st1" d="M3.4,13c0,6.7,5.4,12.1,12.1,12.1S27.6,19.7,27.6,13
	S22.2,0.9,15.5,0.9c0,0,0,0,0,0C8.8,0.9,3.4,6.3,3.4,13C3.4,13,3.4,13,3.4,13z M17.6,13l-4.8-4.7c-0.4-0.4-0.4-1.1,0-1.6
	s1.1-0.4,1.6,0l5.5,5.6c0.4,0.4,0.4,1.1,0,1.5l-5.5,5.5c-0.4,0.4-1.1,0.5-1.6,0c-0.4-0.4-0.5-1.1,0-1.6c0,0,0,0,0,0L17.6,13z"/>
</svg>
