<?xml version="1.0" encoding="utf-8"?>
<!-- Generator: Adobe Illustrator 24.1.3, SVG Export Plug-In . SVG Version: 6.00 Build 0)  -->
<svg version="1.1" id="圖層_1" xmlns="http://www.w3.org/2000/svg" xmlns:xlink="http://www.w3.org/1999/xlink" x="0px" y="0px"
	 viewBox="0 0 100 100" style="enable-background:new 0 0 100 100;" xml:space="preserve">
<style type="text/css">
	.st0{clip-path:url(#SVGID_2_);}
</style>
<g>
	<defs>
		<rect id="SVGID_1_" x="2.3" y="3.3" width="95.5" height="95.5"/>
	</defs>
	<clipPath id="SVGID_2_">
		<use xlink:href="#SVGID_1_"  style="overflow:visible;"/>
	</clipPath>
	<g id="Mask_Group_7" transform="translate(-1008 -755)" class="st0">
		<path id="user-login" d="M1058,806c13.2,0,23.9-10.7,23.9-23.9s-10.7-23.9-23.9-23.9s-23.9,10.7-23.9,23.9S1044.8,806,1058,806z
			 M1074.7,812h-3.1c-8.6,4-18.6,4-27.2,0h-3.1c-13.8,0-25.1,11.2-25.1,25.1v7.8c0,4.9,4,9,9,9h65.7c4.9,0,9-4,9-9V837
			C1099.8,823.2,1088.6,812,1074.7,812z"/>
	</g>
</g>
</svg>
