<?xml version="1.0" encoding="utf-8"?>
<!-- Generator: Adobe Illustrator 24.1.2, SVG Export Plug-In . SVG Version: 6.00 Build 0)  -->
<svg version="1.1" id="圖層_1" xmlns="http://www.w3.org/2000/svg" xmlns:xlink="http://www.w3.org/1999/xlink" x="0px" y="0px"
	 viewBox="0 0 50 50" style="enable-background:new 0 0 50 50;" xml:space="preserve">
<style type="text/css">
	.st0{fill:#4D5057;}
	.st1{fill:#FFFFFF;}
</style>
<circle class="st0" cx="25" cy="25" r="24"/>
<g>
	<g>
		<path class="st1" d="M26.9,23.1l0-12.7c0-0.3-0.1-0.7-0.4-0.9c-0.2-0.2-0.6-0.4-0.9-0.4l-1.1,0c-0.3,0-0.7,0.1-0.9,0.4
			c-0.2,0.2-0.4,0.6-0.4,0.9l0,12.7l-12.7,0c-0.3,0-0.7,0.1-0.9,0.4c-0.2,0.2-0.4,0.6-0.4,0.9l0,1.1c0,0.7,0.6,1.3,1.3,1.3l12.7,0
			l0,12.7c0,0.3,0.1,0.7,0.4,0.9s0.6,0.4,0.9,0.4l1.1,0c0.3,0,0.7-0.1,0.9-0.4c0.2-0.2,0.4-0.6,0.4-0.9l0-12.7l12.7,0
			c0.3,0,0.7-0.1,0.9-0.4l0,0c0.2-0.2,0.4-0.6,0.4-0.9l0-1.1c0-0.3-0.1-0.7-0.4-0.9s-0.6-0.4-0.9-0.4L26.9,23.1z"/>
	</g>
</g>
</svg>
