<?xml version="1.0" encoding="utf-8"?>
<!-- Generator: Adobe Illustrator 24.1.2, SVG Export Plug-In . SVG Version: 6.00 Build 0)  -->
<svg version="1.1" id="圖層_1" xmlns="http://www.w3.org/2000/svg" xmlns:xlink="http://www.w3.org/1999/xlink" x="0px" y="0px"
	 viewBox="0 0 512 512" style="enable-background:new 0 0 512 512;" xml:space="preserve">
<path d="M448,255.9L384,144c0,0,0,0,0-0.1L448,32.1c0,0,0-0.1,0-0.1H160.1c0,0-0.1,0-0.1-0.1C160,14,145.2-0.5,127.2,0
	C109.7,0.5,96,15.3,96,32.7v415.2c0,0,0,0.1-0.1,0.1H74.1c-5.6,0-10.1,4.5-10.1,10.1V502c0,5.5,4.5,10,10,10h108c5.5,0,10-4.5,10-10
	v-44c0-5.5-4.5-10-10-10h-21.9c0,0-0.1,0-0.1-0.1V256.1c0,0,0-0.1,0.1-0.1L448,255.9C447.9,256,448,256,448,255.9z"/>
</svg>
